<svg xmlns="http://www.w3.org/2000/svg" xmlns:xlink="http://www.w3.org/1999/xlink" width="60" zoomAndPan="magnify" viewBox="0 0 45 36.000001" height="48" preserveAspectRatio="xMidYMid meet" version="1.0"><defs><g/></defs><g fill="#ffbbbb" fill-opacity="1"><g transform="translate(8.929694, 25.044341)"><g><path d="M 0.796875 0 L 0.796875 -0.421875 L 2.609375 -0.71875 L 2.609375 -15.109375 L 0.796875 -15.390625 L 0.796875 -15.828125 L 12.703125 -15.828125 L 12.703125 -11.296875 L 12.171875 -11.296875 L 10.640625 -15.328125 L 4.78125 -15.328125 L 4.78125 -7.90625 L 8.125 -7.90625 L 9.296875 -10.78125 L 9.828125 -10.78125 L 9.828125 -4.53125 L 9.296875 -4.53125 L 8.125 -7.4375 L 4.78125 -7.4375 L 4.78125 -0.71875 L 6.609375 -0.421875 L 6.609375 0 Z M 0.796875 0 "/></g></g></g><g fill="#ffbbbb" fill-opacity="1"><g transform="translate(22.22286, 25.044341)"><g><path d="M 4.015625 0 L 4.015625 -0.421875 L 5.828125 -0.71875 L 5.828125 -15.328125 L 2.578125 -15.328125 L 1.0625 -11.40625 L 0.5 -11.40625 L 0.5 -15.828125 L 13.375 -15.828125 L 13.375 -11.40625 L 12.78125 -11.40625 L 11.296875 -15.328125 L 8.015625 -15.328125 L 8.015625 -0.71875 L 9.828125 -0.421875 L 9.828125 0 Z M 4.015625 0 "/></g></g></g><path stroke-linecap="butt" transform="matrix(0.740138, 0, 0, 0.72973, 12.233989, 6.66391)" fill="none" stroke-linejoin="miter" d="M 0.000521444 0.498039 L 29.582215 0.498039 " stroke="#fcf6f8" stroke-width="1" stroke-opacity="1" stroke-miterlimit="4"/><path stroke-linecap="butt" transform="matrix(0.740138, 0, 0, 0.72973, 12.233989, 26.600936)" fill="none" stroke-linejoin="miter" d="M 0.000521444 0.498688 L 29.582215 0.498688 " stroke="#fcf6f8" stroke-width="1" stroke-opacity="1" stroke-miterlimit="4"/></svg>