<svg xmlns="http://www.w3.org/2000/svg" xmlns:xlink="http://www.w3.org/1999/xlink" width="60" zoomAndPan="magnify" viewBox="0 0 45 36.000001" height="48" preserveAspectRatio="xMidYMid meet" version="1.0"><defs><clipPath id="21fae36ca0"><path d="M 0.609375 0 L 44.390625 0 L 44.390625 35.027344 L 0.609375 35.027344 Z M 0.609375 0 " clip-rule="nonzero"/></clipPath><clipPath id="268d823faf"><path d="M 4.109375 5.253906 L 40.890625 5.253906 L 40.890625 10.507812 L 4.109375 10.507812 Z M 4.109375 5.253906 " clip-rule="nonzero"/></clipPath><clipPath id="f00540b554"><path d="M 38.261719 5.253906 C 39.714844 5.253906 40.890625 6.429688 40.890625 7.882812 C 40.890625 9.332031 39.714844 10.507812 38.261719 10.507812 L 6.738281 10.507812 C 5.285156 10.507812 4.109375 9.332031 4.109375 7.882812 C 4.109375 6.429688 5.285156 5.253906 6.738281 5.253906 L 38.261719 5.253906 " clip-rule="nonzero"/></clipPath><clipPath id="ab6aa32935"><path d="M 4.109375 14.886719 L 40.890625 14.886719 L 40.890625 20.140625 L 4.109375 20.140625 Z M 4.109375 14.886719 " clip-rule="nonzero"/></clipPath><clipPath id="31923953d0"><path d="M 38.261719 14.886719 C 39.714844 14.886719 40.890625 16.0625 40.890625 17.511719 C 40.890625 18.964844 39.714844 20.140625 38.261719 20.140625 L 6.738281 20.140625 C 5.285156 20.140625 4.109375 18.964844 4.109375 17.511719 C 4.109375 16.0625 5.285156 14.886719 6.738281 14.886719 L 38.261719 14.886719 " clip-rule="nonzero"/></clipPath><clipPath id="0d4fbb5043"><path d="M 4.109375 24.519531 L 40.890625 24.519531 L 40.890625 29.773438 L 4.109375 29.773438 Z M 4.109375 24.519531 " clip-rule="nonzero"/></clipPath><clipPath id="9700543e39"><path d="M 38.261719 24.519531 C 39.714844 24.519531 40.890625 25.695312 40.890625 27.144531 C 40.890625 28.597656 39.714844 29.773438 38.261719 29.773438 L 6.738281 29.773438 C 5.285156 29.773438 4.109375 28.597656 4.109375 27.144531 C 4.109375 25.695312 5.285156 24.519531 6.738281 24.519531 L 38.261719 24.519531 " clip-rule="nonzero"/></clipPath></defs><g clip-path="url(#21fae36ca0)"><path fill="#ffffff" d="M 0.609375 0 L 44.390625 0 L 44.390625 35.027344 L 0.609375 35.027344 Z M 0.609375 0 " fill-opacity="1" fill-rule="nonzero"/><path fill="#000000" d="M 0.609375 0 L 44.390625 0 L 44.390625 35.027344 L 0.609375 35.027344 Z M 0.609375 0 " fill-opacity="1" fill-rule="nonzero"/></g><g clip-path="url(#268d823faf)"><g clip-path="url(#f00540b554)"><path fill="#fcf6f8" d="M 4.109375 5.253906 L 40.890625 5.253906 L 40.890625 10.507812 L 4.109375 10.507812 Z M 4.109375 5.253906 " fill-opacity="1" fill-rule="nonzero"/></g></g><g clip-path="url(#ab6aa32935)"><g clip-path="url(#31923953d0)"><path fill="#fcf6f8" d="M 4.109375 14.886719 L 40.890625 14.886719 L 40.890625 20.140625 L 4.109375 20.140625 Z M 4.109375 14.886719 " fill-opacity="1" fill-rule="nonzero"/></g></g><g clip-path="url(#0d4fbb5043)"><g clip-path="url(#9700543e39)"><path fill="#fcf6f8" d="M 4.109375 24.519531 L 40.890625 24.519531 L 40.890625 29.773438 L 4.109375 29.773438 Z M 4.109375 24.519531 " fill-opacity="1" fill-rule="nonzero"/></g></g></svg>